<?xml version="1.0" encoding="UTF-8"?>
<svg width="23px" height="20px" viewBox="0 0 23 20" version="1.1" xmlns="http://www.w3.org/2000/svg" xmlns:xlink="http://www.w3.org/1999/xlink">
    <!-- Generator: Sketch 41.2 (35397) - http://www.bohemiancoding.com/sketch -->
    <title>ESCAPE_WHITE</title>
    <desc>Created with Sketch.</desc>
    <defs></defs>
    <g id="Page-1" stroke="none" stroke-width="1" fill="none" fill-rule="evenodd">
        <g id="Feedback" transform="translate(-324.000000, -66.000000)" fill="#FFFFFF">
            <g id="Group-Copy" transform="translate(324.000000, 66.000000)">
                <path d="M19.5857864,9 L15.2928932,4.70710678 C14.9023689,4.31658249 14.9023689,3.68341751 15.2928932,3.29289322 C15.6834175,2.90236893 16.3165825,2.90236893 16.7071068,3.29289322 L22.7071068,9.29289322 C22.9023689,9.48815536 23,9.74407768 23,10 C23,10.2559223 22.9023689,10.5118446 22.7071068,10.7071068 L16.7071068,16.7071068 C16.3165825,17.0976311 15.6834175,17.0976311 15.2928932,16.7071068 C14.9023689,16.3165825 14.9023689,15.6834175 15.2928932,15.2928932 L19.5857864,11 L8,11 C7.44771525,11 7,10.5522847 7,10 C7,9.44771525 7.44771525,9 8,9 L19.5857864,9 Z M2,18 L2,2 L11,2 C11.5522847,2 12,1.55228475 12,1 C12,0.44771525 11.5522847,1.28674849e-13 11,1.27897692e-13 L1,1.13686838e-13 C0.44771525,1.12798659e-13 0,0.44771525 0,1 L0,19 C0,19.5522847 0.44771525,20 1,20 L11,20 C11.5522847,20 12,19.5522847 12,19 C12,18.4477153 11.5522847,18 11,18 L2,18 Z" id="ESCAPE_WHITE"></path>
            </g>
        </g>
    </g>
</svg>